<?xml version="1.0" encoding="UTF-8" standalone="no"?>
<!-- Generator: Adobe Illustrator 14.0.0, SVG Export Plug-In  -->

<svg
   xmlns:dc="http://purl.org/dc/elements/1.1/"
   xmlns:cc="http://creativecommons.org/ns#"
   xmlns:rdf="http://www.w3.org/1999/02/22-rdf-syntax-ns#"
   xmlns:svg="http://www.w3.org/2000/svg"
   xmlns="http://www.w3.org/2000/svg"
   xmlns:xlink="http://www.w3.org/1999/xlink"
   xmlns:sodipodi="http://sodipodi.sourceforge.net/DTD/sodipodi-0.dtd"
   xmlns:inkscape="http://www.inkscape.org/namespaces/inkscape"
   version="1.1"
   x="0px"
   y="0px"
   width="511.18939"
   viewBox="0 -0.0005 511.18939 112.9878"
   enable-background="new 0 -0.0005 501 103"
   xml:space="preserve"
   id="svg270"
   sodipodi:docname="water-studies.svg"
   height="112.9878"
   inkscape:version="0.92.2 5c3e80d, 2017-08-06"
   inkscape:export-filename="/Users/dewey/Desktop/slides/cwrs_poster_template/logos/water-studies.png"
   inkscape:export-xdpi="300"
   inkscape:export-ydpi="300"><metadata
     id="metadata274"><rdf:RDF><cc:Work
         rdf:about=""><dc:format>image/svg+xml</dc:format><dc:type
           rdf:resource="http://purl.org/dc/dcmitype/StillImage" /><dc:title></dc:title></cc:Work></rdf:RDF></metadata><sodipodi:namedview
     pagecolor="#ffffff"
     bordercolor="#666666"
     borderopacity="1"
     objecttolerance="10"
     gridtolerance="10"
     guidetolerance="10"
     inkscape:pageopacity="0"
     inkscape:pageshadow="2"
     inkscape:window-width="723"
     inkscape:window-height="480"
     id="namedview272"
     showgrid="false"
     fit-margin-top="5"
     fit-margin-left="5"
     fit-margin-right="5"
     fit-margin-bottom="5"
     inkscape:zoom="0.64670659"
     inkscape:cx="255.5"
     inkscape:cy="56.488301"
     inkscape:window-x="0"
     inkscape:window-y="0"
     inkscape:window-maximized="0"
     inkscape:current-layer="svg270" /><defs
     id="defs2"><defs
       id="defs5"><rect
         y="0"
         x="0"
         height="102.9878"
         width="501.18951"
         id="SVGID_10_" /></defs><clipPath
       id="SVGID_11_"><use
         height="100%"
         width="100%"
         y="0"
         x="0"
         style="overflow:visible"
         id="use7"
         overflow="visible"
         xlink:href="#SVGID_10_" /></clipPath></defs><g
     id="g140"
     clip-path="url(#SVGID_11_)"
     transform="translate(5,4.9995)"><defs
       id="defs11"><rect
         y="0"
         x="0"
         height="102.9878"
         width="501.18951"
         id="SVGID_9_" /></defs><clipPath
       id="SVGID_12_"><use
         height="100%"
         width="100%"
         y="0"
         x="0"
         style="overflow:visible"
         id="use13"
         overflow="visible"
         xlink:href="#SVGID_9_" /></clipPath><path
       style="fill:#58595b"
       inkscape:connector-curvature="0"
       id="path16"
       d="m 27.4072,95.3345 c -0.5332,-0.6943 -1.416,-1.082 -2.2832,-1.082 -2.123,0 -3.5249,1.6973 -3.5249,3.8467 0,1.9893 1.3223,3.6865 3.5249,3.6865 1.0811,0 1.9111,-0.4814 2.4702,-1.2686 l 1.083,0.8135 c -0.2812,0.3867 -1.416,1.6572 -3.5801,1.6572 -3.0029,0 -4.8608,-2.5127 -4.8608,-4.8887 0,-2.9385 2.0171,-5.0479 4.9277,-5.0479 1.2422,0 2.5513,0.4688 3.312,1.4707 z"
       clip-path="url(#SVGID_12_)" /><polygon
       style="fill:#58595b"
       id="polygon18"
       points="31.5117,97.311 35.9985,97.311 35.9985,98.5142 31.5117,98.5142 31.5117,101.5435 36.5723,101.5435 36.5723,102.7466 30.2295,102.7466 30.2295,93.2925 36.3315,93.2925 36.3315,94.4946 31.5117,94.4946 "
       clip-path="url(#SVGID_12_)" /><polygon
       style="fill:#58595b"
       id="polygon20"
       points="45.3096,93.2925 46.5913,93.2925 46.5913,102.7466 44.9614,102.7466 39.7026,94.9751 39.6743,94.9751 39.6743,102.7466 38.3945,102.7466 38.3945,93.2925 40.0757,93.2925 45.2827,101.0649 45.3096,101.0649 "
       clip-path="url(#SVGID_12_)" /><polygon
       style="fill:#58595b"
       id="polygon22"
       points="55.3301,94.4946 52.2861,94.4946 52.2861,102.7466 51.0029,102.7466 51.0029,94.4946 47.959,94.4946 47.959,93.2925 55.3301,93.2925 "
       clip-path="url(#SVGID_12_)" /><path
       style="fill:#58595b"
       inkscape:connector-curvature="0"
       id="path24"
       d="m 56.6973,93.2925 h 3.3232 c 2.418,0 3.0322,1.4541 3.0322,2.6436 0,1.2021 -0.894,2.3369 -2.3232,2.4961 l 2.6841,4.3145 h -1.603 l -2.4028,-4.168 h -1.4292 v 4.168 h -1.2812 v -9.4542 z m 1.2812,4.165 h 1.6821 c 1.0146,0 2.0308,-0.2383 2.0308,-1.5215 0,-1.2803 -1.0161,-1.5234 -2.0308,-1.5234 h -1.6821 z"
       clip-path="url(#SVGID_12_)" /><polygon
       style="fill:#58595b"
       id="polygon26"
       points="66.1426,97.311 70.6284,97.311 70.6284,98.5142 66.1426,98.5142 66.1426,101.5435 71.2021,101.5435 71.2021,102.7466 64.8604,102.7466 64.8604,93.2925 70.9634,93.2925 70.9634,94.4946 66.1426,94.4946 "
       clip-path="url(#SVGID_12_)" /><polygon
       style="fill:#58595b"
       id="polygon28"
       points="78.0181,97.4575 82.3594,97.4575 82.3594,98.6606 78.0181,98.6606 78.0181,102.7466 76.7373,102.7466 76.7373,93.2925 82.6782,93.2925 82.6782,94.4946 78.0181,94.4946 "
       clip-path="url(#SVGID_12_)" /><path
       style="fill:#58595b"
       inkscape:connector-curvature="0"
       id="path30"
       d="m 83.8184,98.02 c 0,-2.8037 2.043,-4.9688 4.9272,-4.9688 2.8838,0 4.9277,2.165 4.9277,4.9688 0,2.8038 -2.0439,4.9678 -4.9277,4.9678 -2.8843,0 -4.9272,-2.1641 -4.9272,-4.9678 m 8.4921,0 c 0,-2.0703 -1.4019,-3.7676 -3.5649,-3.7676 -2.1641,0 -3.5659,1.6973 -3.5659,3.7676 0,2.0684 1.4019,3.7656 3.5659,3.7656 2.1631,0 3.5649,-1.6972 3.5649,-3.7656"
       clip-path="url(#SVGID_12_)" /><path
       style="fill:#58595b"
       inkscape:connector-curvature="0"
       id="path32"
       d="m 95.521,93.2925 h 3.3257 c 2.417,0 3.0312,1.4541 3.0312,2.6436 0,1.2021 -0.895,2.3369 -2.3232,2.4961 l 2.6841,4.3145 h -1.603 l -2.4038,-4.168 h -1.4302 v 4.168 H 95.521 Z m 1.2808,4.165 h 1.686 c 1.0122,0 2.0278,-0.2383 2.0278,-1.5215 0,-1.2803 -1.0156,-1.5234 -2.0278,-1.5234 h -1.686 z"
       clip-path="url(#SVGID_12_)" /><polygon
       style="fill:#58595b"
       id="polygon34"
       points="111.8711,93.2925 113.3413,93.2925 115.5713,100.8501 115.5981,100.8501 117.6792,93.2925 119.0151,93.2925 116.2642,102.7466 114.9165,102.7466 112.6191,95.0288 112.5933,95.0288 110.3101,102.7466 108.9604,102.7466 106.1953,93.2925 107.5312,93.2925 109.6152,100.8501 109.6411,100.8501 "
       clip-path="url(#SVGID_12_)" /><path
       style="fill:#58595b"
       inkscape:connector-curvature="0"
       id="path36"
       d="m 122.8965,93.2925 h 1.1611 l 4.0449,9.4541 h -1.4951 l -0.9473,-2.3359 h -4.4985 l -0.937,2.3359 h -1.4951 z m 2.2959,5.9961 -1.7642,-4.3408 h -0.0249 l -1.7891,4.3408 z"
       clip-path="url(#SVGID_12_)" /><polygon
       style="fill:#58595b"
       id="polygon38"
       points="134.4141,94.4946 131.3691,94.4946 131.3691,102.7466 130.0869,102.7466 130.0869,94.4946 127.043,94.4946 127.043,93.2925 134.4141,93.2925 "
       clip-path="url(#SVGID_12_)" /><polygon
       style="fill:#58595b"
       id="polygon40"
       points="137.0601,97.311 141.5483,97.311 141.5483,98.5142 137.0601,98.5142 137.0601,101.5435 142.1221,101.5435 142.1221,102.7466 135.7793,102.7466 135.7793,93.2925 141.8823,93.2925 141.8823,94.4946 137.0601,94.4946 "
       clip-path="url(#SVGID_12_)" /><path
       style="fill:#58595b"
       inkscape:connector-curvature="0"
       id="path42"
       d="m 143.9424,93.2925 h 3.3252 c 2.417,0 3.0312,1.4541 3.0312,2.6436 0,1.2021 -0.895,2.3369 -2.3242,2.4961 l 2.6851,4.3145 h -1.6021 l -2.4028,-4.168 h -1.4312 v 4.168 h -1.2812 z m 1.2812,4.165 h 1.6841 c 1.0137,0 2.0298,-0.2383 2.0298,-1.5215 0,-1.2803 -1.0161,-1.5234 -2.0298,-1.5234 h -1.6841 z"
       clip-path="url(#SVGID_12_)" /><path
       style="fill:#58595b"
       inkscape:connector-curvature="0"
       id="path44"
       d="m 155.8193,93.2925 h 3.3252 c 2.418,0 3.0322,1.4541 3.0322,2.6436 0,1.2021 -0.894,2.3369 -2.3232,2.4961 l 2.6831,4.3145 h -1.603 l -2.4028,-4.168 h -1.4292 v 4.168 h -1.2822 v -9.4542 z m 1.2823,4.165 h 1.6841 c 1.0132,0 2.0288,-0.2383 2.0288,-1.5215 0,-1.2803 -1.0156,-1.5234 -2.0288,-1.5234 h -1.6841 z"
       clip-path="url(#SVGID_12_)" /><polygon
       style="fill:#58595b"
       id="polygon46"
       points="165.2642,97.311 169.7524,97.311 169.7524,98.5142 165.2642,98.5142 165.2642,101.5435 170.3252,101.5435 170.3252,102.7466 163.9834,102.7466 163.9834,93.2925 170.0854,93.2925 170.0854,94.4946 165.2642,94.4946 "
       clip-path="url(#SVGID_12_)" /><path
       style="fill:#58595b"
       inkscape:connector-curvature="0"
       id="path48"
       d="m 172.4258,100.77 c 0.4551,0.6943 1.2422,1.0156 2.0029,1.0156 0.8413,0 1.8853,-0.5361 1.8853,-1.5781 0,-2.1768 -4.6611,-0.8262 -4.6611,-4.5117 0,-1.1084 0.9341,-2.6445 3.2041,-2.6445 1.0278,0 2.0146,0.2129 2.7236,1.0811 l -1.043,0.9492 c -0.3188,-0.4941 -0.9468,-0.8291 -1.6807,-0.8291 -1.415,0 -1.8423,0.8555 -1.8423,1.4434 0,2.3906 4.6602,0.9609 4.6602,4.3672 0,1.8301 -1.4712,2.9248 -3.2852,2.9248 -1.2148,0 -2.3779,-0.415 -3.0181,-1.3076 z"
       clip-path="url(#SVGID_12_)" /><path
       style="fill:#58595b"
       inkscape:connector-curvature="0"
       id="path50"
       d="m 178.9873,98.02 c 0,-2.8037 2.042,-4.9688 4.9282,-4.9688 2.8828,0 4.9258,2.165 4.9258,4.9688 0,2.8038 -2.043,4.9678 -4.9258,4.9678 -2.8862,0 -4.9282,-2.1641 -4.9282,-4.9678 m 8.4922,0 c 0,-2.0703 -1.4009,-3.7676 -3.564,-3.7676 -2.1641,0 -3.5659,1.6973 -3.5659,3.7676 0,2.0684 1.4019,3.7656 3.5659,3.7656 2.1631,0 3.564,-1.6972 3.564,-3.7656"
       clip-path="url(#SVGID_12_)" /><path
       style="fill:#58595b"
       inkscape:connector-curvature="0"
       id="path52"
       d="m 191.7988,93.2925 v 5.7949 c 0,1.1748 0.5869,2.6982 2.376,2.6982 1.7891,0 2.3779,-1.5234 2.3779,-2.6982 v -5.7949 h 1.2803 v 5.9961 c 0,2.1895 -1.5884,3.6992 -3.6582,3.6992 -2.0688,0 -3.6582,-1.5098 -3.6582,-3.6992 v -5.9961 z"
       clip-path="url(#SVGID_12_)" /><path
       style="fill:#58595b"
       inkscape:connector-curvature="0"
       id="path54"
       d="m 200.0962,93.2925 h 3.3237 c 2.417,0 3.0322,1.4541 3.0322,2.6436 0,1.2021 -0.895,2.3369 -2.3232,2.4961 l 2.6841,4.3145 h -1.6021 l -2.4038,-4.168 h -1.4302 v 4.168 h -1.2808 v -9.4542 z m 1.2808,4.165 h 1.6831 c 1.0151,0 2.0308,-0.2383 2.0308,-1.5215 0,-1.2803 -1.0156,-1.5234 -2.0308,-1.5234 h -1.6831 z"
       clip-path="url(#SVGID_12_)" /><path
       style="fill:#58595b"
       inkscape:connector-curvature="0"
       id="path56"
       d="m 214.8428,95.3345 c -0.5352,-0.6943 -1.417,-1.082 -2.2832,-1.082 -2.124,0 -3.5269,1.6973 -3.5269,3.8467 0,1.9893 1.3242,3.6865 3.5269,3.6865 1.0801,0 1.9092,-0.4814 2.4683,-1.2686 l 1.083,0.8135 c -0.2812,0.3867 -1.415,1.6572 -3.5801,1.6572 -3.002,0 -4.8599,-2.5127 -4.8599,-4.8887 0,-2.9385 2.0171,-5.0479 4.9277,-5.0479 1.2422,0 2.5503,0.4688 3.312,1.4707 z"
       clip-path="url(#SVGID_12_)" /><polygon
       style="fill:#58595b"
       id="polygon58"
       points="218.9463,97.311 223.4341,97.311 223.4341,98.5142 218.9463,98.5142 218.9463,101.5435 224.0059,101.5435 224.0059,102.7466 217.6641,102.7466 217.6641,93.2925 223.7671,93.2925 223.7671,94.4946 218.9463,94.4946 "
       clip-path="url(#SVGID_12_)" /><path
       style="fill:#58595b"
       inkscape:connector-curvature="0"
       id="path60"
       d="m 226.1084,100.77 c 0.4541,0.6943 1.2412,1.0156 2.0029,1.0156 0.8398,0 1.8828,-0.5361 1.8828,-1.5781 0,-2.1768 -4.6597,-0.8262 -4.6597,-4.5117 0,-1.1084 0.9341,-2.6445 3.2041,-2.6445 1.0288,0 2.0156,0.2129 2.7236,1.0811 l -1.042,0.9492 c -0.3208,-0.4941 -0.9487,-0.8291 -1.6816,-0.8291 -1.415,0 -1.8433,0.8555 -1.8433,1.4434 0,2.3906 4.6611,0.9609 4.6611,4.3672 0,1.8301 -1.4702,2.9248 -3.2842,2.9248 -1.2158,0 -2.3789,-0.415 -3.019,-1.3076 z"
       clip-path="url(#SVGID_12_)" /><path
       style="fill:#58595b"
       inkscape:connector-curvature="0"
       id="path62"
       d="m 237.25,100.77 c 0.4531,0.6943 1.2422,1.0156 2.0029,1.0156 0.8408,0 1.8818,-0.5361 1.8818,-1.5781 0,-2.1768 -4.6597,-0.8262 -4.6597,-4.5117 0,-1.1084 0.9341,-2.6445 3.2061,-2.6445 1.0269,0 2.0146,0.2129 2.7236,1.0811 l -1.0439,0.9492 c -0.3188,-0.4941 -0.9458,-0.8291 -1.6797,-0.8291 -1.417,0 -1.8433,0.8555 -1.8433,1.4434 0,2.3906 4.6602,0.9609 4.6602,4.3672 0,1.8301 -1.4692,2.9248 -3.2842,2.9248 -1.2168,0 -2.3779,-0.415 -3.019,-1.3076 z"
       clip-path="url(#SVGID_12_)" /><polygon
       style="fill:#58595b"
       id="polygon64"
       points="250.7012,94.4946 247.6572,94.4946 247.6572,102.7466 246.374,102.7466 246.374,94.4946 243.3301,94.4946 243.3301,93.2925 250.7012,93.2925 "
       clip-path="url(#SVGID_12_)" /><path
       style="fill:#58595b"
       inkscape:connector-curvature="0"
       id="path66"
       d="m 253.1768,93.2925 v 5.7949 c 0,1.1748 0.5859,2.6982 2.375,2.6982 1.79,0 2.3789,-1.5234 2.3789,-2.6982 v -5.7949 h 1.2812 v 5.9961 c 0,2.1895 -1.5879,3.6992 -3.6602,3.6992 -2.0684,0 -3.6562,-1.5098 -3.6562,-3.6992 v -5.9961 z"
       clip-path="url(#SVGID_12_)" /><path
       style="fill:#58595b"
       inkscape:connector-curvature="0"
       id="path68"
       d="m 261.2588,93.2925 h 3.2988 c 3.9922,0 4.9668,2.9805 4.9668,4.7275 0,2.417 -1.8018,4.7266 -5.1807,4.7266 h -3.085 v -9.4541 z m 1.2812,8.251 h 1.6172 c 2.1631,0 4.0059,-1.1875 4.0059,-3.5234 0,-1.2031 -0.6279,-3.5254 -3.6982,-3.5254 H 262.54 Z"
       clip-path="url(#SVGID_12_)" /><rect
       style="fill:#58595b"
       id="rect70"
       height="9.4540997"
       width="1.2822"
       clip-path="url(#SVGID_12_)"
       y="93.292503"
       x="271.37299" /><polygon
       style="fill:#58595b"
       id="polygon72"
       points="276.3701,97.311 280.8555,97.311 280.8555,98.5142 276.3701,98.5142 276.3701,101.5435 281.4297,101.5435 281.4297,102.7466 275.0879,102.7466 275.0879,93.2925 281.1904,93.2925 281.1904,94.4946 276.3701,94.4946 "
       clip-path="url(#SVGID_12_)" /><path
       style="fill:#58595b"
       inkscape:connector-curvature="0"
       id="path74"
       d="m 283.5322,100.77 c 0.4521,0.6943 1.2412,1.0156 2.0039,1.0156 0.8418,0 1.8799,-0.5361 1.8799,-1.5781 0,-2.1768 -4.6602,-0.8262 -4.6602,-4.5117 0,-1.1084 0.9365,-2.6445 3.2061,-2.6445 1.0273,0 2.0176,0.2129 2.7236,1.0811 l -1.043,0.9492 c -0.3184,-0.4941 -0.9463,-0.8291 -1.6807,-0.8291 -1.4141,0 -1.8447,0.8555 -1.8447,1.4434 0,2.3906 4.6621,0.9609 4.6621,4.3672 0,1.8301 -1.4697,2.9248 -3.2852,2.9248 -1.2148,0 -2.377,-0.415 -3.0186,-1.3076 z"
       clip-path="url(#SVGID_12_)" /><rect
       style="fill:#58595b"
       id="rect76"
       height="10.3359"
       width="1.0381"
       clip-path="url(#SVGID_12_)"
       y="92.651901"
       x="294.14059" /><path
       style="fill:#58595b"
       inkscape:connector-curvature="0"
       id="path78"
       d="m 300.8604,93.2925 h 3.2988 c 3.9932,0 4.9688,2.9805 4.9688,4.7275 0,2.417 -1.8057,4.7266 -5.1826,4.7266 h -3.085 z m 1.2822,8.251 h 1.6152 c 2.1641,0 4.0059,-1.1875 4.0059,-3.5234 0,-1.2031 -0.6289,-3.5254 -3.6973,-3.5254 h -1.9238 z"
       clip-path="url(#SVGID_12_)" /><path
       style="fill:#58595b"
       inkscape:connector-curvature="0"
       id="path80"
       d="m 313.9365,93.2925 h 1.1641 l 4.0459,9.4541 h -1.498 l -0.9473,-2.3359 h -4.499 l -0.9346,2.3359 h -1.498 z m 2.2979,5.9961 -1.7637,-4.3408 h -0.0244 l -1.79,4.3408 z"
       clip-path="url(#SVGID_12_)" /><polygon
       style="fill:#58595b"
       id="polygon82"
       points="326,102.7466 320.3799,102.7466 320.3799,93.2925 321.6611,93.2925 321.6611,101.5435 326,101.5435 "
       clip-path="url(#SVGID_12_)" /><polygon
       style="fill:#58595b"
       id="polygon84"
       points="333.4941,93.2925 334.7764,93.2925 334.7764,102.7466 333.4941,102.7466 333.4941,98.4204 328.5947,98.4204 328.5947,102.7466 327.3145,102.7466 327.3145,93.2925 328.5947,93.2925 328.5947,97.2192 333.4941,97.2192 "
       clip-path="url(#SVGID_12_)" /><path
       style="fill:#58595b"
       inkscape:connector-curvature="0"
       id="path86"
       d="m 336.625,98.02 c 0,-2.8037 2.0439,-4.9688 4.9268,-4.9688 2.8857,0 4.9297,2.165 4.9297,4.9688 0,2.8038 -2.0439,4.9678 -4.9297,4.9678 -2.8829,0 -4.9268,-2.1641 -4.9268,-4.9678 m 8.4951,0 c 0,-2.0703 -1.4033,-3.7676 -3.5684,-3.7676 -2.1631,0 -3.5645,1.6973 -3.5645,3.7676 0,2.0684 1.4014,3.7656 3.5645,3.7656 2.1651,0 3.5684,-1.6972 3.5684,-3.7656"
       clip-path="url(#SVGID_12_)" /><path
       style="fill:#58595b"
       inkscape:connector-curvature="0"
       id="path88"
       d="m 349.4355,93.2925 v 5.7949 c 0,1.1748 0.5889,2.6982 2.3789,2.6982 1.7891,0 2.3779,-1.5234 2.3779,-2.6982 v -5.7949 h 1.2803 v 5.9961 c 0,2.1895 -1.5889,3.6992 -3.6582,3.6992 -2.0723,0 -3.6592,-1.5098 -3.6592,-3.6992 v -5.9961 z"
       clip-path="url(#SVGID_12_)" /><path
       style="fill:#58595b"
       inkscape:connector-curvature="0"
       id="path90"
       d="m 358.0137,100.77 c 0.4541,0.6943 1.2432,1.0156 2.0049,1.0156 0.8398,0 1.8809,-0.5361 1.8809,-1.5781 0,-2.1768 -4.6582,-0.8262 -4.6582,-4.5117 0,-1.1084 0.9336,-2.6445 3.2041,-2.6445 1.0283,0 2.0146,0.2129 2.7236,1.0811 l -1.042,0.9492 c -0.3223,-0.4941 -0.9492,-0.8291 -1.6816,-0.8291 -1.416,0 -1.8418,0.8555 -1.8418,1.4434 0,2.3906 4.6611,0.9609 4.6611,4.3672 0,1.8301 -1.4688,2.9248 -3.2871,2.9248 -1.2148,0 -2.375,-0.415 -3.0186,-1.3076 z"
       clip-path="url(#SVGID_12_)" /><rect
       style="fill:#58595b"
       id="rect92"
       height="9.4540997"
       width="1.2803"
       clip-path="url(#SVGID_12_)"
       y="93.292503"
       x="365.16409" /><polygon
       style="fill:#58595b"
       id="polygon94"
       points="370.1602,97.311 374.6455,97.311 374.6455,98.5142 370.1602,98.5142 370.1602,101.5435 375.2178,101.5435 375.2178,102.7466 368.877,102.7466 368.877,93.2925 374.9775,93.2925 374.9775,94.4946 370.1602,94.4946 "
       clip-path="url(#SVGID_12_)" /><path
       style="fill:#58595b"
       inkscape:connector-curvature="0"
       id="path96"
       d="m 381.8633,93.2925 v 5.7949 c 0,1.1748 0.5859,2.6982 2.375,2.6982 1.79,0 2.376,-1.5234 2.376,-2.6982 v -5.7949 h 1.2842 v 5.9961 c 0,2.1895 -1.5889,3.6992 -3.6602,3.6992 -2.0713,0 -3.6572,-1.5098 -3.6572,-3.6992 v -5.9961 z"
       clip-path="url(#SVGID_12_)" /><polygon
       style="fill:#58595b"
       id="polygon98"
       points="397.0771,93.2925 398.3584,93.2925 398.3584,102.7466 396.7295,102.7466 391.4688,94.9751 391.4424,94.9751 391.4424,102.7466 390.1602,102.7466 390.1602,93.2925 391.8428,93.2925 397.0488,101.0649 397.0771,101.0649 "
       clip-path="url(#SVGID_12_)" /><rect
       style="fill:#58595b"
       id="rect100"
       height="9.4540997"
       width="1.2842"
       clip-path="url(#SVGID_12_)"
       y="93.292503"
       x="400.79391" /><polygon
       style="fill:#58595b"
       id="polygon102"
       points="410.3828,93.2925 411.7852,93.2925 408.0596,102.7466 406.8584,102.7466 403.2139,93.2925 404.6973,93.2925 407.4736,100.9839 407.5,100.9839 "
       clip-path="url(#SVGID_12_)" /><polygon
       style="fill:#58595b"
       id="polygon104"
       points="414.207,97.311 418.6943,97.311 418.6943,98.5142 414.207,98.5142 414.207,101.5435 419.2686,101.5435 419.2686,102.7466 412.9268,102.7466 412.9268,93.2925 419.0283,93.2925 419.0283,94.4946 414.207,94.4946 "
       clip-path="url(#SVGID_12_)" /><path
       style="fill:#58595b"
       inkscape:connector-curvature="0"
       id="path106"
       d="m 421.0889,93.2925 h 3.3242 c 2.418,0 3.0312,1.4541 3.0312,2.6436 0,1.2021 -0.8926,2.3369 -2.3242,2.4961 l 2.6846,4.3145 h -1.6035 l -2.4004,-4.168 h -1.4307 v 4.168 h -1.2812 z m 1.2812,4.165 h 1.6816 c 1.0176,0 2.0312,-0.2383 2.0312,-1.5215 0,-1.2803 -1.0137,-1.5234 -2.0312,-1.5234 h -1.6816 z"
       clip-path="url(#SVGID_12_)" /><path
       style="fill:#58595b"
       inkscape:connector-curvature="0"
       id="path108"
       d="m 429.5332,100.77 c 0.4521,0.6943 1.2412,1.0156 2.0029,1.0156 0.8398,0 1.8818,-0.5361 1.8818,-1.5781 0,-2.1768 -4.6611,-0.8262 -4.6611,-4.5117 0,-1.1084 0.9365,-2.6445 3.2061,-2.6445 1.0273,0 2.0166,0.2129 2.7236,1.0811 l -1.042,0.9492 c -0.3213,-0.4941 -0.9463,-0.8291 -1.6816,-0.8291 -1.416,0 -1.8428,0.8555 -1.8428,1.4434 0,2.3906 4.6592,0.9609 4.6592,4.3672 0,1.8301 -1.4697,2.9248 -3.2842,2.9248 -1.2168,0 -2.376,-0.415 -3.0186,-1.3076 z"
       clip-path="url(#SVGID_12_)" /><rect
       style="fill:#58595b"
       id="rect110"
       height="9.4540997"
       width="1.2812001"
       clip-path="url(#SVGID_12_)"
       y="93.292503"
       x="436.68069" /><polygon
       style="fill:#58595b"
       id="polygon112"
       points="446.6963,94.4946 443.6533,94.4946 443.6533,102.7466 442.3701,102.7466 442.3701,94.4946 439.3262,94.4946 439.3262,93.2925 446.6963,93.2925 "
       clip-path="url(#SVGID_12_)" /><polygon
       style="fill:#58595b"
       id="polygon114"
       points="453.5898,93.2925 455.1533,93.2925 451.5732,98.7134 451.5732,102.7466 450.291,102.7466 450.291,98.7134 446.7139,93.2925 448.3574,93.2925 450.9336,97.4458 "
       clip-path="url(#SVGID_12_)" /><polygon
       style="fill:#285eac"
       id="polygon116"
       points="28.708,27.3169 34.0029,27.3169 46.731,63.271 46.917,63.271 57.0449,27.3169 62.6191,27.3169 49.9829,70.2349 44.2241,70.2349 31.4028,35.1187 31.2158,35.1187 19.23,70.2349 13.4712,70.2349 0,27.3169 6.1309,27.3169 16.5371,63.271 16.7231,63.271 "
       clip-path="url(#SVGID_12_)" /><path
       style="fill:#285eac"
       inkscape:connector-curvature="0"
       id="path118"
       d="m 101.9233,52.2163 c 0,8.3604 0.186,13.0986 0.8359,18.0186 H 97.5566 C 97.1855,68.1021 97.0004,65.6861 97.0004,63.271 h -0.186 c -3.1602,5.4785 -7.8052,8.0811 -15.0522,8.0811 -7.3398,0 -15.1416,-3.6221 -15.1416,-12.7285 0,-13.0996 15.3276,-14.3994 23.7827,-14.3994 h 6.5029 V 41.623 c 0,-7.4341 -5.2026,-10.4048 -12.0767,-10.4048 -5.0181,0 -9.292,1.5767 -13.1001,4.8276 l -3.252,-3.8057 c 4.0889,-3.9014 10.7769,-6.04 16.3521,-6.04 10.4058,0 17.0938,4.646 17.0938,15.5161 z M 90.7754,48.6851 c -9.292,0 -18.5811,2.3232 -18.5811,9.6592 0,5.2979 5.1099,7.9922 9.7539,7.9922 11.8911,0 14.958,-7.6211 14.958,-14.7705 v -2.8809 z"
       clip-path="url(#SVGID_12_)" /><path
       style="fill:#285eac"
       inkscape:connector-curvature="0"
       id="path120"
       d="m 132.2129,32.332 h -12.2632 v 27.9653 c 0,3.8105 2.229,6.0391 5.9473,6.0391 2.1348,0 4.3638,-0.6504 6.3159,-1.4854 l 0.4639,5.0127 c -2.042,0.7451 -5.1099,1.4883 -7.2446,1.4883 -7.9912,0 -11.0562,-4.9229 -11.0562,-11.0547 V 32.332 h -9.292 v -5.0151 h 9.292 V 14.959 h 5.5737 v 12.3579 h 12.2632 z"
       clip-path="url(#SVGID_12_)" /><path
       style="fill:#285eac"
       inkscape:connector-curvature="0"
       id="path122"
       d="m 177.5542,62.1538 c -4.3677,6.5039 -10.9619,9.1973 -18.5811,9.1973 -13.1011,0 -21.7407,-9.3818 -21.7407,-22.666 0,-12.8237 8.9189,-22.4849 21.46,-22.4849 13.1938,0 20.1621,10.127 20.1621,20.0669 v 3.9033 h -36.0474 c 0,4.6455 3.25,16.166 16.2593,16.166 5.665,0 11.6099,-2.9707 14.3999,-7.6211 z m -4.2739,-17.0005 c 0,-7.6172 -6.5972,-13.936 -14.8662,-13.936 -12.1709,0 -15.6069,11.707 -15.6069,13.936 z"
       clip-path="url(#SVGID_12_)" /><path
       style="fill:#285eac"
       inkscape:connector-curvature="0"
       id="path124"
       d="m 187.3125,39.395 c 0,-3.1602 -0.4639,-9.8501 -0.4639,-12.0781 h 5.5737 c 0.0933,3.1582 0.187,6.687 0.3721,7.522 2.7891,-5.0146 7.2461,-8.6387 13.6572,-8.6387 1.1157,0 2.1367,0.187 3.252,0.4639 l -0.6509,5.4829 c -0.8354,-0.2788 -1.5771,-0.3711 -2.1353,-0.3711 -9.6631,0 -14.0308,6.687 -14.0308,15.0469 v 23.4121 h -5.5742 V 39.395 Z"
       clip-path="url(#SVGID_12_)" /><path
       style="fill:#48a4db"
       inkscape:connector-curvature="0"
       id="path126"
       d="m 219.2734,59.2729 c 2.3252,4.5566 7.4351,7.0635 12.4502,7.0635 4.8306,0 9.8477,-2.9707 9.8477,-7.8984 0,-11.7998 -25.4551,-3.5293 -25.4551,-19.8828 0,-8.3599 7.6172,-12.355 14.6782,-12.355 6.9668,0 12.356,2.6021 15.144,8.0811 l -5.0171,2.9751 c -2.1362,-3.9019 -5.1108,-6.0391 -10.127,-6.0391 -3.9941,0 -9.104,2.415 -9.104,6.875 0,11.6123 25.4561,2.6011 25.4561,19.9736 0,8.8262 -7.3389,13.2852 -15.5171,13.2852 -7.3379,0 -13.9341,-2.7861 -17.2798,-8.7324 z"
       clip-path="url(#SVGID_12_)" /><path
       style="fill:#48a4db"
       inkscape:connector-curvature="0"
       id="path128"
       d="m 278.3672,32.332 h -12.2637 v 27.9653 c 0,3.8105 2.2285,6.0391 5.9453,6.0391 2.1357,0 4.3652,-0.6504 6.3184,-1.4854 l 0.4629,5.0127 c -2.043,0.7451 -5.1094,1.4883 -7.2461,1.4883 -7.9912,0 -11.0547,-4.9229 -11.0547,-11.0547 V 32.332 h -9.292 v -5.0151 h 9.292 V 14.959 h 5.5742 v 12.3579 h 12.2637 z"
       clip-path="url(#SVGID_12_)" /><path
       style="fill:#48a4db"
       inkscape:connector-curvature="0"
       id="path130"
       d="m 322.4951,58.1597 c 0,3.1592 0.4648,9.8477 0.4648,12.0752 h -5.5752 c -0.0928,-3.1553 -0.1855,-6.6846 -0.3711,-7.5215 h -0.2793 c -2.2285,4.7383 -7.71,8.6377 -14.6777,8.6377 -13.377,0 -16.3516,-9.1045 -16.3516,-18.4863 V 27.3174 h 5.5752 v 25.271 c 0,6.9639 1.9492,13.748 10.7764,13.748 8.2686,0 14.8633,-5.7598 14.8633,-17.5591 v -21.46 h 5.5752 z"
       clip-path="url(#SVGID_12_)" /><path
       style="fill:#48a4db"
       inkscape:connector-curvature="0"
       id="path132"
       d="m 368.585,62.7124 h -0.1865 c -3.4395,5.9443 -10.7773,8.6396 -17.1875,8.6396 -13.1953,0 -22.5762,-9.4766 -22.5762,-22.5742 0,-13.103 9.3809,-22.5781 22.5762,-22.5781 6.4102,0 13.748,2.6973 17.1875,8.6401 h 0.1865 V 0 h 5.5713 V 70.2358 H 368.585 Z M 351.2109,31.2178 c -10.498,0 -17.002,7.8979 -17.002,17.5601 0,9.6602 6.5039,17.5586 17.002,17.5586 10.125,0 17.9307,-7.8984 17.9307,-17.5586 0,-9.6622 -7.8057,-17.5601 -17.9307,-17.5601"
       clip-path="url(#SVGID_12_)" /><path
       style="fill:#48a4db"
       inkscape:connector-curvature="0"
       id="path134"
       d="m 384.8467,6.1338 c 2.3203,0 4.1807,1.856 4.1807,4.1802 0,2.3218 -1.8604,4.1787 -4.1807,4.1787 -2.3262,0 -4.1826,-1.8569 -4.1826,-4.1787 0,-2.3243 1.8564,-4.1802 4.1826,-4.1802 m -2.7891,21.1831 h 5.5742 v 42.918 h -5.5742 z"
       clip-path="url(#SVGID_12_)" /><path
       style="fill:#48a4db"
       inkscape:connector-curvature="0"
       id="path136"
       d="m 435.3877,62.1538 c -4.3682,6.5039 -10.9629,9.1973 -18.5801,9.1973 -13.1025,0 -21.7422,-9.3818 -21.7422,-22.666 0,-12.8237 8.9189,-22.4849 21.4609,-22.4849 13.1934,0 20.1611,10.127 20.1611,20.0669 v 3.9033 h -36.0469 c 0,4.6455 3.25,16.166 16.2588,16.166 5.665,0 11.6104,-2.9707 14.3994,-7.6211 z m -4.2744,-17.0005 c 0,-7.6172 -6.5967,-13.936 -14.8662,-13.936 -12.1709,0 -15.6064,11.707 -15.6064,13.936 z"
       clip-path="url(#SVGID_12_)" /><path
       style="fill:#48a4db"
       inkscape:connector-curvature="0"
       id="path138"
       d="m 445.5176,59.2729 c 2.3242,4.5566 7.4336,7.0635 12.4492,7.0635 4.8311,0 9.8486,-2.9707 9.8486,-7.8984 0,-11.7998 -25.4561,-3.5293 -25.4561,-19.8828 0,-8.3599 7.6182,-12.355 14.6797,-12.355 6.9658,0 12.3545,2.6021 15.1436,8.0811 l -5.0176,2.9751 c -2.1357,-3.9019 -5.1094,-6.0391 -10.126,-6.0391 -3.9941,0 -9.1045,2.415 -9.1045,6.875 0,11.6123 25.4551,2.6011 25.4551,19.9736 0,8.8262 -7.3389,13.2852 -15.5166,13.2852 -7.3379,0 -13.9346,-2.7861 -17.2803,-8.7324 z"
       clip-path="url(#SVGID_12_)" /></g><g
     id="g171"
     clip-path="url(#SVGID_11_)"
     transform="translate(5,4.9995)"><defs
       id="defs143"><path
         inkscape:connector-curvature="0"
         d="m 484.4697,60.9438 c -3.3594,0.2373 -5.6855,2.0859 -6.7373,4.6904 0,0 -1.0225,3.3184 2.7598,5.2783 0,0 2.3467,1.7734 6.8193,1.3447 0,0 5.7686,-0.6855 5.9697,-5.1162 0.167,-3.6641 -3.8594,-6.2227 -8.084,-6.2227 -0.2421,2e-4 -0.4843,0.0089 -0.7275,0.0255"
         id="SVGID_8_" /></defs><clipPath
       id="SVGID_13_"><use
         height="100%"
         width="100%"
         y="0"
         x="0"
         style="overflow:visible"
         id="use145"
         overflow="visible"
         xlink:href="#SVGID_8_" /></clipPath><radialGradient
       gradientUnits="userSpaceOnUse"
       gradientTransform="matrix(-6.8773,16.5521,16.5521,6.8773,-1217.0432,-649.5562)"
       r="1"
       cy="102.9878"
       cx="0"
       id="SVGID_14_"><stop
         id="stop148"
         style="stop-color:#47C8F5"
         offset="0" /><stop
         id="stop150"
         style="stop-color:#47C6F3"
         offset="0.4022" /><stop
         id="stop152"
         style="stop-color:#46C0EF"
         offset="0.5471" /><stop
         id="stop154"
         style="stop-color:#43B8EA"
         offset="0.6504" /><stop
         id="stop156"
         style="stop-color:#3FADE2"
         offset="0.7339" /><stop
         id="stop158"
         style="stop-color:#3A9FD8"
         offset="0.8055" /><stop
         id="stop160"
         style="stop-color:#368ECD"
         offset="0.8688" /><stop
         id="stop162"
         style="stop-color:#317BBF"
         offset="0.9261" /><stop
         id="stop164"
         style="stop-color:#2A68B2"
         offset="0.9771" /><stop
         id="stop166"
         style="stop-color:#285EAC"
         offset="1" /></radialGradient><polygon
       style="fill:url(#SVGID_14_)"
       id="polygon169"
       points="497.6172,62.6509 490.9834,78.6167 472.541,70.9536 479.1738,54.9878 "
       clip-path="url(#SVGID_13_)" /></g><g
     id="g203"
     clip-path="url(#SVGID_11_)"
     transform="translate(5,4.9995)"><defs
       id="defs174"><rect
         y="0"
         x="0"
         height="102.9878"
         width="501.18951"
         id="SVGID_7_" /></defs><clipPath
       id="SVGID_15_"><use
         height="100%"
         width="100%"
         y="0"
         x="0"
         style="overflow:visible"
         id="use176"
         overflow="visible"
         xlink:href="#SVGID_7_" /></clipPath><g
       style="opacity:0.49000005"
       id="g189"
       clip-path="url(#SVGID_15_)"><g
         id="g187"><defs
           id="defs180"><rect
             height="4.7451"
             width="13.458"
             y="66.567902"
             x="478.77341"
             id="SVGID_6_" /></defs><clipPath
           id="SVGID_16_"><use
             height="100%"
             width="100%"
             y="0"
             x="0"
             style="overflow:visible"
             id="use182"
             overflow="visible"
             xlink:href="#SVGID_6_" /></clipPath><path
           style="fill:#ffffff"
           inkscape:connector-curvature="0"
           id="path185"
           d="m 485.4141,70.0815 c -3.5645,-0.1709 -6.2168,-1.2852 -6.5469,-3.3115 -0.0566,0.2568 -0.1348,0.5361 -0.0674,0.793 0.5625,2.1055 3.3486,3.8555 7.0117,3.7451 3.7139,-0.1123 6.5781,-2.3564 6.4131,-4.6836 0,-0.0156 -0.006,-0.0371 -0.0107,-0.0566 -0.2784,1.9033 -1.919,3.7441 -6.7998,3.5136"
           clip-path="url(#SVGID_16_)" /></g></g><g
       style="opacity:0.5"
       id="g201"
       clip-path="url(#SVGID_15_)"><g
         id="g199"><defs
           id="defs192"><rect
             height="4.4619002"
             width="12.1338"
             y="61.8032"
             x="478.79489"
             id="SVGID_5_" /></defs><clipPath
           id="SVGID_17_"><use
             height="100%"
             width="100%"
             y="0"
             x="0"
             style="overflow:visible"
             id="use194"
             overflow="visible"
             xlink:href="#SVGID_5_" /></clipPath><path
           style="fill:#ffffff"
           inkscape:connector-curvature="0"
           id="path197"
           d="m 478.7949,65.1079 2.5586,1.1562 c 0,0 1.5273,-5.7793 9.5752,-2.6406 0,0 -4.9111,-4.9541 -12.1338,1.4844"
           clip-path="url(#SVGID_17_)" /></g></g></g><g
     id="g234"
     clip-path="url(#SVGID_11_)"
     transform="translate(5,4.9995)"><defs
       id="defs206"><path
         inkscape:connector-curvature="0"
         d="m 497.3271,66.8247 c -1.4746,0.1084 -2.4951,0.916 -2.957,2.0596 0,0 -0.4463,1.4541 1.2109,2.3135 0,0 1.0312,0.7764 2.9912,0.5908 0,0 2.5264,-0.3027 2.6162,-2.2432 0,-0.0195 10e-4,-0.0391 10e-4,-0.0586 v -0.0781 c -0.0293,-1.5381 -1.75,-2.5938 -3.5518,-2.5938 -0.1034,0 -0.2079,0.003 -0.3105,0.0098"
         id="SVGID_4_" /></defs><clipPath
       id="SVGID_18_"><use
         height="100%"
         width="100%"
         y="0"
         x="0"
         style="overflow:visible"
         id="use208"
         overflow="visible"
         xlink:href="#SVGID_4_" /></clipPath><radialGradient
       gradientUnits="userSpaceOnUse"
       gradientTransform="matrix(-3.0179,7.2632,7.2632,3.0179,-249.3185,-244.947)"
       r="1"
       cy="102.9878"
       cx="0"
       id="SVGID_19_"><stop
         id="stop211"
         style="stop-color:#47C8F5"
         offset="0" /><stop
         id="stop213"
         style="stop-color:#47C6F3"
         offset="0.4022" /><stop
         id="stop215"
         style="stop-color:#46C0EF"
         offset="0.5471" /><stop
         id="stop217"
         style="stop-color:#43B8EA"
         offset="0.6504" /><stop
         id="stop219"
         style="stop-color:#3FADE2"
         offset="0.7339" /><stop
         id="stop221"
         style="stop-color:#3A9FD8"
         offset="0.8055" /><stop
         id="stop223"
         style="stop-color:#368ECD"
         offset="0.8688" /><stop
         id="stop225"
         style="stop-color:#317BBF"
         offset="0.9261" /><stop
         id="stop227"
         style="stop-color:#2A68B2"
         offset="0.9771" /><stop
         id="stop229"
         style="stop-color:#285EAC"
         offset="1" /></radialGradient><polygon
       style="fill:url(#SVGID_19_)"
       id="polygon232"
       points="503.0166,67.5747 500.1191,74.5483 492.0957,71.2144 494.9932,64.2407 "
       clip-path="url(#SVGID_18_)" /></g><g
     id="g266"
     clip-path="url(#SVGID_11_)"
     transform="translate(5,4.9995)"><defs
       id="defs237"><rect
         y="0"
         x="0"
         height="102.9878"
         width="501.18951"
         id="SVGID_3_" /></defs><clipPath
       id="SVGID_20_"><use
         height="100%"
         width="100%"
         y="0"
         x="0"
         style="overflow:visible"
         id="use239"
         overflow="visible"
         xlink:href="#SVGID_3_" /></clipPath><g
       style="opacity:0.49000005"
       id="g252"
       clip-path="url(#SVGID_20_)"><g
         id="g250"><defs
           id="defs243"><rect
             height="2.0790999"
             width="5.9004002"
             y="69.294403"
             x="494.8291"
             id="SVGID_2_" /></defs><clipPath
           id="SVGID_21_"><use
             height="100%"
             width="100%"
             y="0"
             x="0"
             style="overflow:visible"
             id="use245"
             overflow="visible"
             xlink:href="#SVGID_2_" /></clipPath><path
           style="fill:#ffffff"
           inkscape:connector-curvature="0"
           id="path248"
           d="m 497.7393,70.8335 c -1.5625,-0.0752 -2.7275,-0.5654 -2.8711,-1.4551 -0.0225,0.1172 -0.0566,0.2373 -0.0283,0.3516 0.2451,0.9238 1.4678,1.6875 3.0742,1.6426 1.6289,-0.0488 2.8848,-1.0342 2.8125,-2.0557 0,-0.0049 -0.003,-0.0156 -0.006,-0.0225 -0.1211,0.833 -0.8408,1.6426 -2.9814,1.5391"
           clip-path="url(#SVGID_21_)" /></g></g><g
       style="opacity:0.5"
       id="g264"
       clip-path="url(#SVGID_20_)"><g
         id="g262"><defs
           id="defs255"><rect
             height="1.957"
             width="5.3183999"
             y="67.203598"
             x="494.83789"
             id="SVGID_1_" /></defs><clipPath
           id="SVGID_22_"><use
             height="100%"
             width="100%"
             y="0"
             x="0"
             style="overflow:visible"
             id="use257"
             overflow="visible"
             xlink:href="#SVGID_1_" /></clipPath><path
           style="fill:#ffffff"
           inkscape:connector-curvature="0"
           id="path260"
           d="m 494.8379,68.6519 1.1211,0.5098 c 0,0 0.6689,-2.5342 4.1973,-1.1582 -10e-5,-1e-4 -2.1524,-2.1739 -5.3184,0.6484"
           clip-path="url(#SVGID_22_)" /></g></g></g></svg>